<?xml version="1.0" encoding="UTF-8"?>
<svg version="1.1" xmlns="http://www.w3.org/2000/svg" width="32" height="32">
<path d="M0 0 C10.56 0 21.12 0 32 0 C32 10.56 32 21.12 32 32 C21.44 32 10.88 32 0 32 C0 21.44 0 10.88 0 0 Z " fill="#0358F5" transform="translate(0,0)"/>
<path d="M0 0 C1.06347656 0.00386719 2.12695312 0.00773437 3.22265625 0.01171875 C5.9375 0.3125 5.9375 0.3125 7.9375 2.3125 C7.38194444 6.86805556 7.38194444 6.86805556 5.9375 8.3125 C3.24095146 8.38569621 0.57058542 8.40492537 -2.125 8.375 C-3.26291992 8.36823242 -3.26291992 8.36823242 -4.42382812 8.36132812 C-6.30341871 8.3495068 -8.18296899 8.33157078 -10.0625 8.3125 C-9.7085152 5.69301246 -9.34590943 3.7418232 -7.87890625 1.51953125 C-5.23639147 -0.23646244 -3.14023336 -0.04960271 0 0 Z " fill="#EEF3FE" transform="translate(17.0625,17.6875)"/>
<path d="M0 0 C1.48831242 0.00667405 2.97660807 0.01863442 4.46484375 0.03515625 C5.22345703 0.03966797 5.98207031 0.04417969 6.76367188 0.04882812 C8.64326246 0.06064945 10.52281274 0.07858547 12.40234375 0.09765625 C12.04835895 2.71714379 11.68575318 4.66833305 10.21875 6.890625 C7.57623522 8.64661869 5.48007711 8.45975896 2.33984375 8.41015625 C1.27636719 8.40628906 0.21289062 8.40242187 -0.8828125 8.3984375 C-3.59765625 8.09765625 -3.59765625 8.09765625 -5.59765625 6.09765625 C-4.8701613 0.13219765 -4.8701613 0.13219765 0 0 Z " fill="#EBF2FE" transform="translate(12.59765625,5.90234375)"/>
</svg>
