<svg xmlns="http://www.w3.org/2000/svg" fill="none" viewBox="190 167 674.98 140">
<path d="M190 190.333C190 177.447 200.447 167 213.333 167H306.667C319.553 167 330 177.447 330 190.333V283.667C330 296.553 319.553 307 306.667 307H213.333C200.447 307 190 296.553 190 283.667V190.333Z" fill="#0056F5"/>
<path d="M220.333 212.5C220.333 222.165 228.169 230 237.833 230H264.667C283.997 230 299.667 214.33 299.667 195H237.834C228.169 195 220.333 202.835 220.333 212.5Z" fill="white"/>
<path d="M220.333 280.167H282.167C291.832 280.167 299.667 272.331 299.667 262.667C299.667 253.002 291.832 245.167 282.167 245.167H255.334C236.004 245.167 220.333 260.837 220.333 280.167Z" fill="white"/>
<path d="M392.357 295V191.4H419.237V230.32H453.397V191.4H480.277V295H453.397V253.28H419.237V295H392.357ZM533.376 296.4C526.563 296.4 520.636 295.327 515.596 293.18C510.65 291.033 506.543 288.14 503.276 284.5C500.01 280.767 497.583 276.613 495.996 272.04C494.41 267.373 493.616 262.613 493.616 257.76C493.616 253.093 494.363 248.473 495.856 243.9C497.443 239.327 499.823 235.22 502.996 231.58C506.17 227.847 510.183 224.907 515.036 222.76C519.983 220.52 525.816 219.4 532.536 219.4C539.816 219.4 546.21 220.94 551.716 224.02C557.223 227.1 561.516 231.58 564.596 237.46C567.676 243.247 569.216 250.293 569.216 258.6V264.62H520.356C520.636 267.793 521.85 270.593 523.996 273.02C526.236 275.447 529.363 276.66 533.376 276.66C536.456 276.66 538.79 276.147 540.376 275.12C541.963 274 543.036 272.927 543.596 271.9C544.156 270.78 544.436 270.22 544.436 270.22H568.796C568.796 270.22 568.563 271.107 568.096 272.88C567.63 274.653 566.743 276.847 565.436 279.46C564.13 281.98 562.17 284.547 559.556 287.16C556.943 289.773 553.49 291.967 549.196 293.74C544.996 295.513 539.723 296.4 533.376 296.4ZM520.216 249.92H543.876C543.783 246.093 542.663 243.247 540.516 241.38C538.37 239.42 535.523 238.44 531.976 238.44C528.99 238.44 526.33 239.373 523.996 241.24C521.756 243.107 520.496 246 520.216 249.92ZM582.533 295V188.6H609.133V295H582.533ZM639.593 213.38C635.206 213.38 631.566 211.98 628.673 209.18C625.873 206.287 624.473 202.88 624.473 198.96C624.473 194.853 625.873 191.4 628.673 188.6C631.566 185.8 635.206 184.4 639.593 184.4C643.979 184.4 647.619 185.8 650.513 188.6C653.406 191.4 654.853 194.853 654.853 198.96C654.853 202.88 653.406 206.287 650.513 209.18C647.619 211.98 643.979 213.38 639.593 213.38ZM626.293 295V220.8H652.893V295H626.293ZM691.306 296.4C685.893 296.4 681.506 295.233 678.146 292.9C674.88 290.567 672.5 287.533 671.006 283.8C669.606 279.973 668.906 275.913 668.906 271.62V220.8H695.226V265.04C695.226 267.84 695.926 270.22 697.326 272.18C698.726 274.047 700.966 274.98 704.046 274.98C707.22 274.98 709.46 274 710.766 272.04C712.073 269.987 712.726 267.653 712.726 265.04V220.8H739.326V295H712.726V284.5H711.886C709.833 288.233 707.126 291.173 703.766 293.32C700.406 295.373 696.253 296.4 691.306 296.4ZM753.262 295V220.8H779.862V230.46H780.702C782.568 227.287 785.135 224.673 788.402 222.62C791.668 220.473 795.775 219.4 800.722 219.4C806.322 219.4 810.708 220.707 813.882 223.32C817.055 225.84 819.342 228.827 820.742 232.28H821.162C822.282 230.507 823.822 228.64 825.782 226.68C827.742 224.627 830.215 222.9 833.202 221.5C836.188 220.1 839.735 219.4 843.842 219.4C848.882 219.4 852.942 220.52 856.022 222.76C859.102 225 861.342 227.8 862.742 231.16C864.235 234.427 864.982 237.74 864.982 241.1V295H838.382V249.64C838.382 247.213 837.728 245.16 836.422 243.48C835.115 241.707 833.062 240.82 830.262 240.82C827.555 240.82 825.548 241.707 824.242 243.48C823.028 245.16 822.422 247.213 822.422 249.64V295H795.822V249.64C795.822 247.213 795.168 245.16 793.862 243.48C792.555 241.707 790.502 240.82 787.702 240.82C784.995 240.82 782.988 241.707 781.682 243.48C780.468 245.16 779.862 247.213 779.862 249.64V295H753.262Z" fill="black"/>
</svg>