<svg width="351" height="352" viewBox="0 0 351 352" fill="none" xmlns="http://www.w3.org/2000/svg">
<path d="M0 59C0 26.6913 26.1913 0.5 58.5 0.5H292.5C324.809 0.5 351 26.6913 351 59V293C351 325.309 324.809 351.5 292.5 351.5H58.5C26.1913 351.5 0 325.309 0 293V59Z" fill="url(#paint0_linear_132_47)"/>
<path d="M76.0498 114.575C76.0498 138.807 95.6933 158.45 119.925 158.45H187.2C235.663 158.45 274.95 119.163 274.95 70.7001H119.925C95.6933 70.7001 76.0498 90.3436 76.0498 114.575Z" fill="white"/>
<path d="M76.0498 284.225H231.075C255.306 284.225 274.95 264.581 274.95 240.35C274.95 216.118 255.306 196.475 231.075 196.475H163.8C115.337 196.475 76.0498 235.762 76.0498 284.225Z" fill="white"/>
<defs>
<linearGradient id="paint0_linear_132_47" x1="339.3" y1="0.499999" x2="-4.79445e-07" y2="357.35" gradientUnits="userSpaceOnUse">
<stop offset="1" stop-color="#0056F5"/>
</linearGradient>
</defs>
</svg>
