<svg width="2130" height="1200" viewBox="0 0 2130 1200" fill="none" xmlns="http://www.w3.org/2000/svg">
<g filter="url(#filter0_d_111_1168)">
<path d="M242.853 613.332C243.265 612.225 244.075 611.311 245.126 610.77L250.834 607.831C251.613 607.429 252.531 608.035 252.47 608.909C252.445 609.266 252.592 609.613 252.865 609.845L257.158 613.486L262.563 619.105C262.741 619.29 262.936 619.458 263.145 619.607L263.703 620.005C266.954 622.323 265.114 627.449 261.132 627.171C259.623 627.065 258.185 627.83 257.43 629.141L256.921 630.024L255.599 629.479C254.228 628.912 252.652 629.205 251.575 630.227L251.534 630.265C250.446 631.298 248.839 631.566 247.475 630.942L246.232 630.374C245.489 630.035 244.612 630.224 244.075 630.839C242.825 632.27 240.489 631.106 240.879 629.247L241.543 626.077C241.581 625.896 241.601 625.712 241.601 625.526L241.604 618.042C241.605 617.148 241.765 616.262 242.076 615.424L242.853 613.332Z" fill="url(#paint0_linear_111_1168)"/>
<g filter="url(#filter1_f_111_1168)">
<ellipse cx="1.24295" cy="5.53012" rx="1.24295" ry="5.53012" transform="matrix(0.98387 0.178885 -0.123723 0.992317 245.996 618.707)" fill="white"/>
</g>
<path d="M242.724 610.692L259.81 681.589C280.081 765.7 343.269 832.85 425.993 858.192L478.633 874.319" stroke="url(#paint1_linear_111_1168)" stroke-width="3.58687"/>
<path d="M230.519 580.774C229.865 578.536 232.68 575.527 238.306 574.853C240.189 574.909 244.003 574.037 244.194 570.095" stroke="white" stroke-width="1.37852"/>
<path d="M344 405.393C352.792 489.044 316.693 605.2 242.113 613.038C167.532 620.877 82.7116 517.431 73.9195 433.779C65.1274 350.128 118.46 275.961 193.04 268.122C267.621 260.283 335.208 321.741 344 405.393Z" fill="url(#paint2_linear_111_1168)"/>
<g filter="url(#filter2_f_111_1168)">
<path d="M320.666 423.056C329.272 504.938 313.7 586.738 248.687 593.571C183.675 600.404 93.8412 529.682 85.2351 447.801C76.629 365.919 122.355 294.002 187.368 287.169C252.38 280.336 312.06 341.175 320.666 423.056Z" fill="url(#paint3_linear_111_1168)"/>
</g>
<g filter="url(#filter3_f_111_1168)">
<ellipse cx="33.9869" cy="56.1072" rx="33.9869" ry="56.1072" transform="matrix(0.999067 -0.0431823 0.0556958 0.998448 104.309 353.812)" fill="white" fill-opacity="0.86"/>
</g>
<g filter="url(#filter4_f_111_1168)">
<ellipse cx="4.93526" cy="28.7139" rx="4.93526" ry="28.7139" transform="matrix(0.98387 0.178885 -0.123723 0.992317 324.845 401.863)" fill="white"/>
</g>
<g filter="url(#filter5_f_111_1168)">
<ellipse cx="1.24295" cy="5.74995" rx="1.24295" ry="5.74995" transform="matrix(0.961262 -0.275637 0.32883 0.944389 252.317 616.613)" fill="white"/>
</g>
<path d="M242.552 613.394L254.968 611.196" stroke="#2B2B2B" stroke-width="1.83492" stroke-linecap="round"/>
<path d="M242.659 612.776L255.6 611.842" stroke="#3B3A3A" stroke-width="1.83492" stroke-linecap="round"/>
<path d="M242.456 614.016L254.958 610.599" stroke="#343131" stroke-width="1.83492" stroke-linecap="round"/>
</g>
<path d="M591.885 765V432H669.735V561.15H789.435V432H867.285V765H789.435V627.75H669.735V765H591.885ZM1025.42 769.5C1004.12 769.5 985.675 766.05 970.075 759.15C954.475 751.95 941.425 742.5 930.925 730.8C920.725 718.8 913.075 705.45 907.975 690.75C903.175 676.05 900.775 660.9 900.775 645.3C900.775 630.3 903.175 615.45 907.975 600.75C912.775 586.05 920.125 572.85 930.025 561.15C939.925 549.15 952.525 539.7 967.825 532.8C983.425 525.6 1001.87 522 1023.17 522C1045.97 522 1065.92 526.95 1083.02 536.85C1100.42 546.45 1113.92 560.7 1123.52 579.6C1133.42 598.2 1138.37 620.85 1138.37 647.55V665.55H978.175C979.075 677.85 983.425 688.65 991.225 697.95C999.325 706.95 1010.72 711.45 1025.42 711.45C1036.52 711.45 1044.92 709.5 1050.62 705.6C1056.62 701.4 1060.67 697.2 1062.77 693C1064.87 688.8 1065.92 686.7 1065.92 686.7H1136.57C1136.57 686.7 1135.82 689.55 1134.32 695.25C1132.82 700.65 1129.97 707.55 1125.77 715.95C1121.57 724.05 1115.42 732.3 1107.32 740.7C1099.22 748.8 1088.42 755.7 1074.92 761.4C1061.72 766.8 1045.22 769.5 1025.42 769.5ZM977.725 621H1064.57C1063.97 606.9 1059.62 596.25 1051.52 589.05C1043.72 581.85 1033.82 578.25 1021.82 578.25C1010.12 578.25 1000.07 581.85 991.675 589.05C983.575 596.25 978.925 606.9 977.725 621ZM1171.77 765V423H1248.72V765H1171.77ZM1332.79 498.15C1319.89 498.15 1309.24 493.95 1300.84 485.55C1292.44 477.15 1288.24 467.25 1288.24 455.85C1288.24 443.85 1292.44 433.65 1300.84 425.25C1309.24 416.85 1319.89 412.65 1332.79 412.65C1345.69 412.65 1356.34 416.85 1364.74 425.25C1373.14 433.65 1377.34 443.85 1377.34 455.85C1377.34 467.25 1373.14 477.15 1364.74 485.55C1356.34 493.95 1345.69 498.15 1332.79 498.15ZM1294.09 765V526.5H1371.04V765H1294.09ZM1485.64 769.5C1468.24 769.5 1454.14 765.9 1443.34 758.7C1432.84 751.2 1425.04 741.45 1419.94 729.45C1414.84 717.15 1412.29 703.65 1412.29 688.95V526.5H1488.34V671.85C1488.34 682.05 1491.04 690.45 1496.44 697.05C1501.84 703.65 1509.94 706.95 1520.74 706.95C1533.04 706.95 1541.74 702.9 1546.84 694.8C1552.24 686.4 1554.94 676.95 1554.94 666.45V526.5H1631.89V765H1554.94V731.25H1552.24C1546.24 741.75 1537.84 750.75 1527.04 758.25C1516.24 765.75 1502.44 769.5 1485.64 769.5ZM1666.86 765V526.5H1743.81V558.45H1746.51C1751.91 548.85 1759.71 540.45 1769.91 533.25C1780.41 525.75 1794.06 522 1810.86 522C1828.86 522 1843.11 526.2 1853.61 534.6C1864.41 542.7 1872.06 552.75 1876.56 564.75H1877.91C1881.51 558.45 1886.46 552 1892.76 545.4C1899.36 538.8 1907.46 533.25 1917.06 528.75C1926.66 524.25 1938.06 522 1951.26 522C1967.76 522 1981.11 525.75 1991.31 533.25C2001.81 540.45 2009.46 549.75 2014.26 561.15C2019.36 572.55 2021.91 584.4 2021.91 596.7V765H1944.96V619.2C1944.96 609.3 1942.41 601.05 1937.31 594.45C1932.21 587.85 1924.56 584.55 1914.36 584.55C1903.26 584.55 1895.16 588.3 1890.06 595.8C1885.26 603.3 1882.86 611.85 1882.86 621.45V765H1805.91V619.2C1805.91 609.6 1803.36 601.5 1798.26 594.9C1793.46 588 1785.81 584.55 1775.31 584.55C1764.21 584.55 1756.11 588.45 1751.01 596.25C1746.21 603.75 1743.81 612.15 1743.81 621.45V765H1666.86Z" fill="black"/>
<defs>
<filter id="filter0_d_111_1168" x="18.9238" y="216.489" width="514.282" height="716.68" filterUnits="userSpaceOnUse" color-interpolation-filters="sRGB">
<feFlood flood-opacity="0" result="BackgroundImageFix"/>
<feColorMatrix in="SourceAlpha" type="matrix" values="0 0 0 0 0 0 0 0 0 0 0 0 0 0 0 0 0 0 127 0" result="hardAlpha"/>
<feOffset dy="3.08842"/>
<feGaussianBlur stdDeviation="27.0237"/>
<feComposite in2="hardAlpha" operator="out"/>
<feColorMatrix type="matrix" values="0 0 0 0 0 0 0 0 0 0 0 0 0 0 0 0 0 0 0.25 0"/>
<feBlend mode="normal" in2="BackgroundImageFix" result="effect1_dropShadow_111_1168"/>
<feBlend mode="normal" in="SourceGraphic" in2="effect1_dropShadow_111_1168" result="shape"/>
</filter>
<filter id="filter1_f_111_1168" x="240.852" y="614.644" width="11.3662" height="19.5473" filterUnits="userSpaceOnUse" color-interpolation-filters="sRGB">
<feFlood flood-opacity="0" result="BackgroundImageFix"/>
<feBlend mode="normal" in="SourceGraphic" in2="BackgroundImageFix" result="shape"/>
<feGaussianBlur stdDeviation="2.14074" result="effect1_foregroundBlur_111_1168"/>
</filter>
<filter id="filter2_f_111_1168" x="56.624" y="259.075" width="293.784" height="362.524" filterUnits="userSpaceOnUse" color-interpolation-filters="sRGB">
<feFlood flood-opacity="0" result="BackgroundImageFix"/>
<feBlend mode="normal" in="SourceGraphic" in2="BackgroundImageFix" result="shape"/>
<feGaussianBlur stdDeviation="13.7852" result="effect1_foregroundBlur_111_1168"/>
</filter>
<filter id="filter3_f_111_1168" x="65.932" y="310.969" width="150.913" height="194.79" filterUnits="userSpaceOnUse" color-interpolation-filters="sRGB">
<feFlood flood-opacity="0" result="BackgroundImageFix"/>
<feBlend mode="normal" in="SourceGraphic" in2="BackgroundImageFix" result="shape"/>
<feGaussianBlur stdDeviation="20.6778" result="effect1_foregroundBlur_111_1168"/>
</filter>
<filter id="filter4_f_111_1168" x="306.346" y="388.947" width="39.6041" height="84.5849" filterUnits="userSpaceOnUse" color-interpolation-filters="sRGB">
<feFlood flood-opacity="0" result="BackgroundImageFix"/>
<feBlend mode="normal" in="SourceGraphic" in2="BackgroundImageFix" result="shape"/>
<feGaussianBlur stdDeviation="6.89259" result="effect1_foregroundBlur_111_1168"/>
</filter>
<filter id="filter5_f_111_1168" x="248.884" y="611.978" width="13.0366" height="19.4454" filterUnits="userSpaceOnUse" color-interpolation-filters="sRGB">
<feFlood flood-opacity="0" result="BackgroundImageFix"/>
<feBlend mode="normal" in="SourceGraphic" in2="BackgroundImageFix" result="shape"/>
<feGaussianBlur stdDeviation="2.14074" result="effect1_foregroundBlur_111_1168"/>
</filter>
<linearGradient id="paint0_linear_111_1168" x1="245.838" y1="611.461" x2="254.603" y2="634.296" gradientUnits="userSpaceOnUse">
<stop stop-color="#CD0000"/>
<stop offset="1" stop-color="#FB2727"/>
</linearGradient>
<linearGradient id="paint1_linear_111_1168" x1="472.837" y1="872.906" x2="257.651" y2="638.92" gradientUnits="userSpaceOnUse">
<stop stop-color="#666666" stop-opacity="0"/>
<stop offset="0.155" stop-color="#333333" stop-opacity="0.5"/>
<stop offset="1"/>
</linearGradient>
<linearGradient id="paint2_linear_111_1168" x1="193.04" y1="268.122" x2="224.879" y2="571.05" gradientUnits="userSpaceOnUse">
<stop stop-color="#EB0000"/>
<stop offset="1" stop-color="#CD0000"/>
</linearGradient>
<linearGradient id="paint3_linear_111_1168" x1="187.368" y1="287.169" x2="218.533" y2="583.688" gradientUnits="userSpaceOnUse">
<stop stop-color="#EB2626"/>
<stop offset="1" stop-color="#F80000"/>
</linearGradient>
</defs>
</svg>
